<?xml version="1.0" standalone="no"?>
<!DOCTYPE svg PUBLIC "-//W3C//DTD SVG 20010904//EN"
 "http://www.w3.org/TR/2001/REC-SVG-20010904/DTD/svg10.dtd">
<svg version="1.0" xmlns="http://www.w3.org/2000/svg"
 width="256.000000pt" height="256.000000pt" viewBox="0 0 256.000000 256.000000"
 preserveAspectRatio="xMidYMid meet">
<metadata>
Created by potrace 1.14, written by Peter Selinger 2001-2017
</metadata>
<g transform="translate(0.000000,256.000000) scale(0.100000,-0.100000)"
fill="#000000" stroke="none">
<path d="M1008 2270 c-154 -235 -282 -446 -334 -554 -24 -49 -46 -91 -48 -93
-2 -2 -32 35 -67 82 -35 47 -66 85 -69 85 -3 0 -56 -51 -119 -114 l-113 -113
34 -20 c81 -50 354 -202 367 -205 8 -2 18 15 28 47 47 163 128 343 209 466 87
131 229 238 340 255 l42 6 -45 96 c-25 54 -60 128 -78 167 l-32 69 -115 -174z"/>
</g>
</svg>
